<svg xmlns="http://www.w3.org/2000/svg"  viewBox="0 0 100 100" width="50px" height="50px"><path fill="#c7ede6" d="M89.016,55.791c0.3-0.616,0.566-1.264,0.796-1.943c2.633-7.77-1.349-17.078-9.733-19.325C79.172,23.14,71.172,15.33,62.138,13.998c-10.341-1.525-19.814,5.044-22.966,15.485c-3.799-1.346-7.501-1.182-10.99,0.857c-1.583,0.732-3.031,1.812-4.33,3.233c-1.907,2.086-3.147,4.719-3.652,7.495c-0.748,0.118-1.483,0.236-2.176,0.484c-4.04,1.449-6.589,4.431-7.288,8.923c-0.435,2.797,0.443,5.587,0.933,6.714c1.935,4.455,6.422,6.98,10.981,6.312c0.227-0.033,0.557,0.069,0.752,0.233c0.241,7.12,3.698,13.417,8.884,17.014c8.321,5.772,19.027,3.994,25.781-3.921c2.894,2.96,6.338,4.398,10.384,3.876c4.023-0.519,7.147-2.739,9.426-6.349c1.053,0.283,2.051,0.691,3.083,0.804c4.042,0.442,7.324-1.165,9.732-4.8c0.922-1.391,1.793-3.194,1.793-6.354C92.486,60.748,91.193,57.781,89.016,55.791z"/><path fill="#fdfcef" d="M77.121,49.162c0,0,11.691,0,11.762,0c2.7,0,4.888-2.189,4.888-4.889c0-2.355-1.666-4.321-3.884-4.784c0.026-0.206,0.043-0.415,0.043-0.628c0-2.796-2.267-5.063-5.063-5.063c-1.651,0-3.113,0.794-4.037,2.017c-0.236-3.113-3.017-5.514-6.27-5.116c-2.379,0.291-4.346,2.13-4.784,4.486c-0.14,0.756-0.126,1.489,0.014,2.177c-0.638-0.687-1.546-1.119-2.557-1.119c-1.85,0-3.361,1.441-3.48,3.261c-0.84-0.186-1.754-0.174-2.717,0.188c-1.84,0.691-3.15,2.423-3.227,4.387c-0.109,2.789,2.12,5.085,4.885,5.085c0.21,0,0.948,0,1.118,0h10.151"/><path fill="#472b29" d="M88.883,49.662H77.121c-0.276,0-0.5-0.224-0.5-0.5s0.224-0.5,0.5-0.5h11.762c2.42,0,4.389-1.969,4.389-4.389c0-2.066-1.466-3.873-3.486-4.295c-0.254-0.053-0.426-0.292-0.394-0.55c0.022-0.186,0.039-0.375,0.039-0.567c0-2.516-2.047-4.563-4.563-4.563c-1.438,0-2.765,0.663-3.639,1.818c-0.125,0.166-0.341,0.236-0.539,0.178c-0.2-0.059-0.342-0.234-0.358-0.441c-0.104-1.377-0.778-2.67-1.85-3.549c-1.083-0.888-2.456-1.281-3.86-1.109c-2.165,0.265-3.955,1.943-4.353,4.081c-0.124,0.667-0.12,1.335,0.013,1.986c0.044,0.22-0.062,0.442-0.262,0.544c-0.197,0.102-0.442,0.06-0.595-0.104c-0.575-0.619-1.353-0.959-2.19-0.959c-1.568,0-2.878,1.227-2.98,2.794c-0.01,0.146-0.082,0.28-0.199,0.367c-0.116,0.087-0.267,0.118-0.408,0.088c-0.842-0.187-1.637-0.132-2.433,0.167c-1.669,0.626-2.836,2.209-2.903,3.938c-0.047,1.207,0.387,2.35,1.222,3.218c0.835,0.869,1.959,1.347,3.163,1.347h11.27c0.276,0,0.5,0.224,0.5,0.5s-0.224,0.5-0.5,0.5h-11.27c-1.479,0-2.858-0.587-3.884-1.653s-1.559-2.469-1.501-3.951c0.084-2.126,1.511-4.069,3.552-4.835c0.801-0.3,1.628-0.398,2.468-0.299c0.377-1.822,1.997-3.182,3.904-3.182c0.685,0,1.354,0.18,1.944,0.51c-0.001-0.385,0.035-0.773,0.107-1.159c0.476-2.562,2.619-4.574,5.214-4.891c1.675-0.205,3.32,0.266,4.615,1.328c1.004,0.823,1.717,1.951,2.038,3.193c1.013-0.916,2.319-1.426,3.714-1.426c3.067,0,5.563,2.496,5.563,5.563c0,0.083-0.002,0.166-0.007,0.249c2.254,0.672,3.848,2.777,3.848,5.164C94.272,47.245,91.855,49.662,88.883,49.662z"/><path fill="#fdfcef" d="M74.288,38.394c-1.808-0.119-3.365,1.13-3.476,2.789c-0.014,0.206-0.005,0.409,0.025,0.606c-0.349-0.394-0.865-0.661-1.458-0.7c-1.085-0.071-2.022,0.645-2.158,1.62c-0.197-0.054-0.403-0.09-0.616-0.104c-1.582-0.104-2.944,0.989-3.042,2.441"/><path fill="#472b29" d="M63.564,45.295c-0.005,0-0.011,0-0.017,0c-0.138-0.009-0.242-0.128-0.232-0.266c0.105-1.587,1.573-2.793,3.307-2.673c0.136,0.009,0.272,0.027,0.409,0.053c0.273-0.968,1.248-1.634,2.365-1.568c0.419,0.027,0.821,0.163,1.163,0.384c0.001-0.019,0.002-0.039,0.004-0.058c0.12-1.794,1.803-3.145,3.742-3.022c0.138,0.009,0.242,0.128,0.232,0.266c-0.008,0.137-0.109,0.252-0.266,0.233c-1.659-0.111-3.108,1.038-3.211,2.557c-0.012,0.186-0.004,0.372,0.023,0.551c0.017,0.11-0.04,0.217-0.141,0.265c-0.101,0.046-0.221,0.022-0.294-0.061c-0.317-0.359-0.787-0.583-1.287-0.616c-0.938-0.062-1.774,0.555-1.893,1.405c-0.011,0.071-0.051,0.134-0.11,0.174c-0.06,0.04-0.136,0.051-0.203,0.033c-0.189-0.051-0.38-0.084-0.568-0.096c-1.445-0.096-2.687,0.896-2.775,2.208C63.804,45.194,63.695,45.295,63.564,45.295z"/><path fill="#fdfcef" d="M90.863,40.062c-1.699-0.801-3.664-0.234-4.389,1.267c-0.09,0.186-0.157,0.379-0.201,0.574"/><path fill="#472b29" d="M86.273,42.153c-0.018,0-0.036-0.002-0.055-0.006c-0.135-0.03-0.22-0.164-0.189-0.299c0.049-0.217,0.123-0.429,0.221-0.628c0.783-1.621,2.899-2.242,4.72-1.383c0.125,0.059,0.179,0.208,0.12,0.333c-0.06,0.126-0.21,0.178-0.333,0.12c-1.575-0.741-3.393-0.226-4.057,1.149c-0.081,0.166-0.143,0.34-0.183,0.52C86.491,42.074,86.387,42.153,86.273,42.153z"/><path fill="#fff" d="M18.681 47.827H8.651c-.276 0-.5-.224-.5-.5s.224-.5.5-.5h10.03c.276 0 .5.224.5.5S18.957 47.827 18.681 47.827zM21.562 47.827h-1.445c-.276 0-.5-.224-.5-.5s.224-.5.5-.5h1.445c.276 0 .5.224.5.5S21.838 47.827 21.562 47.827zM25.617 47.827h-2.546c-.276 0-.5-.224-.5-.5s.224-.5.5-.5h2.546c.276 0 .5.224.5.5S25.893 47.827 25.617 47.827zM25.617 49.692H16c-.276 0-.5-.224-.5-.5s.224-.5.5-.5h9.616c.276 0 .5.224.5.5S25.893 49.692 25.617 49.692zM14.269 49.692h-.58c-.276 0-.5-.224-.5-.5s.224-.5.5-.5h.58c.276 0 .5.224.5.5S14.545 49.692 14.269 49.692zM11.892 49.692h-1.456c-.276 0-.5-.224-.5-.5s.224-.5.5-.5h1.456c.276 0 .5.224.5.5S12.168 49.692 11.892 49.692zM21.028 45.962H16c-.276 0-.5-.224-.5-.5s.224-.5.5-.5h5.027c.276 0 .5.224.5.5S21.304 45.962 21.028 45.962zM21.028 44.097h-1.257c-.276 0-.5-.224-.5-.5s.224-.5.5-.5h1.257c.276 0 .5.224.5.5S21.304 44.097 21.028 44.097zM17.759 51.556H16c-.276 0-.5-.224-.5-.5s.224-.5.5-.5h1.759c.276 0 .5.224.5.5S18.036 51.556 17.759 51.556zM71.859 21.55h-10.03c-.276 0-.5-.224-.5-.5s.224-.5.5-.5h10.03c.276 0 .5.224.5.5S72.135 21.55 71.859 21.55zM74.74 21.55h-1.445c-.276 0-.5-.224-.5-.5s.224-.5.5-.5h1.445c.276 0 .5.224.5.5S75.016 21.55 74.74 21.55zM78.794 21.55h-2.546c-.276 0-.5-.224-.5-.5s.224-.5.5-.5h2.546c.276 0 .5.224.5.5S79.071 21.55 78.794 21.55zM76.769 17.82h-9.616c-.276 0-.5-.224-.5-.5s.224-.5.5-.5h9.616c.276 0 .5.224.5.5S77.045 17.82 76.769 17.82zM65.421 17.82h-.58c-.276 0-.5-.224-.5-.5s.224-.5.5-.5h.58c.276 0 .5.224.5.5S65.698 17.82 65.421 17.82zM63.044 17.82h-1.456c-.276 0-.5-.224-.5-.5s.224-.5.5-.5h1.456c.276 0 .5.224.5.5S63.321 17.82 63.044 17.82zM74.205 19.685h-5.027c-.276 0-.5-.224-.5-.5s.224-.5.5-.5h5.027c.276 0 .5.224.5.5S74.482 19.685 74.205 19.685z"/><path fill="#fff" d="M74.205 17.82h-1.257c-.276 0-.5-.224-.5-.5s.224-.5.5-.5h1.257c.276 0 .5.224.5.5S74.482 17.82 74.205 17.82zM67.723 19.685h-1.759c-.276 0-.5-.224-.5-.5s.224-.5.5-.5h1.759c.276 0 .5.224.5.5S67.999 19.685 67.723 19.685z"/><path fill="#39c1d7" d="M67.127,72.76H37.414c-3.766,0-6.847-3.081-6.847-6.847V36.2c0-3.766,3.081-6.847,6.847-6.847h29.713c3.766,0,6.847,3.081,6.847,6.847v29.713C73.974,69.679,70.893,72.76,67.127,72.76z"/><path fill="#472b29" d="M67.127,73.461H37.414c-4.162,0-7.548-3.386-7.548-7.547V36.2c0-4.162,3.386-7.547,7.548-7.547h29.713c4.161,0,7.547,3.386,7.547,7.547v29.713C74.674,70.075,71.288,73.461,67.127,73.461z M37.414,30.053c-3.39,0-6.147,2.757-6.147,6.147v29.713c0,3.39,2.758,6.147,6.147,6.147h29.713c3.39,0,6.146-2.757,6.146-6.147V36.2c0-3.39-2.757-6.147-6.146-6.147H37.414z"/><path fill="#fdfcee" d="M65.325,69.66H39.216c-3.052,0-5.549-2.497-5.549-5.549V38.002c0-3.052,2.497-5.549,5.549-5.549h26.109c3.052,0,5.549,2.497,5.549,5.549v26.109C70.874,67.163,68.377,69.66,65.325,69.66z"/><path fill="#472b29" d="M65.22 70.01H39.322c-3.311 0-6.004-2.694-6.004-6.004V38.107c0-3.311 2.693-6.004 6.004-6.004h24.662c.193 0 .35.157.35.35s-.156.35-.35.35H39.322c-2.925 0-5.305 2.379-5.305 5.304v25.898c0 2.925 2.38 5.304 5.305 5.304H65.22c2.924 0 5.304-2.379 5.304-5.304V49.678c0-.193.156-.35.35-.35s.35.157.35.35v14.327C71.223 67.316 68.531 70.01 65.22 70.01zM70.873 47.962c-.193 0-.35-.157-.35-.35v-2.756c0-.193.156-.35.35-.35s.35.157.35.35v2.756C71.223 47.805 71.067 47.962 70.873 47.962zM70.873 43.827c-.193 0-.35-.157-.35-.35v-1.378c0-.193.156-.35.35-.35s.35.157.35.35v1.378C71.223 43.671 71.067 43.827 70.873 43.827z"/><path fill="#fbcd59" d="M54.939,56.837c0.59-0.364,0.835-1.207,0.704-1.642l-0.157-1.258c2.327-1.169,4.045-3.526,4.045-6.265c0-3.896-3.345-7.066-7.321-7.066s-7.199,3.159-7.199,7.055c0,2.739,1.596,5.108,3.923,6.277l-0.157,1.258c0,0.732,0.487,1.357,1.158,1.581"/><path fill="#472b29" d="M54.939,57.162c-0.108,0-0.215-0.055-0.276-0.155c-0.095-0.152-0.047-0.353,0.105-0.447c0.456-0.281,0.656-0.964,0.563-1.271l-0.168-1.311c-0.018-0.137,0.054-0.269,0.177-0.331c2.348-1.18,3.865-3.525,3.865-5.975c0-3.717-3.139-6.741-6.996-6.741c-3.79,0-6.873,3.019-6.873,6.729c0,2.533,1.435,4.827,3.743,5.986c0.123,0.062,0.194,0.194,0.177,0.331l-0.157,1.258c0.003,0.534,0.379,1.045,0.938,1.232c0.171,0.057,0.263,0.241,0.206,0.411c-0.058,0.17-0.241,0.264-0.411,0.205c-0.826-0.275-1.381-1.035-1.381-1.889l0.133-1.074c-2.411-1.302-3.898-3.756-3.898-6.461c0-4.069,3.375-7.38,7.523-7.38c4.216,0,7.646,3.316,7.646,7.392c0,2.621-1.57,5.128-4.02,6.449l0.129,1.033c0.168,0.541-0.155,1.527-0.855,1.959C55.056,57.146,54.997,57.162,54.939,57.162z"/><path fill="#472b29" d="M51.35,56.156c-0.006,0-0.012,0-0.018-0.001c-0.11-0.01-0.191-0.107-0.182-0.217c0.149-1.649,0.033-2.973-0.375-4.119c-0.454,0.107-0.927,0.036-1.282-0.217c-0.332-0.235-0.534-0.557-0.554-0.884c-0.017-0.275,0.094-0.528,0.319-0.732c0.115-0.105,0.239-0.169,0.369-0.19c0.303-0.05,0.614,0.134,0.839,0.488c0.21,0.33,0.39,0.671,0.541,1.028c0.059-0.029,0.115-0.063,0.17-0.101c0.085-0.059,0.162-0.124,0.232-0.193c-0.242-0.32-0.284-0.758-0.126-1.301c0.075-0.253,0.314-0.495,0.557-0.564c0.167-0.048,0.326-0.015,0.448,0.093c0.172,0.153,0.216,0.395,0.13,0.72c-0.078,0.301-0.216,0.672-0.452,1.011c0.298,0.161,0.693,0.152,0.879,0.137c0.284-0.023,0.557-0.147,0.771-0.346c-0.381-0.271-0.552-0.632-0.474-1.022c0.054-0.268,0.287-0.542,0.555-0.651c0.181-0.074,0.362-0.064,0.506,0.033c0.195,0.131,0.218,0.352,0.235,0.512c0.036,0.342-0.041,0.693-0.215,1c0.081,0.032,0.165,0.059,0.249,0.081c0.267-0.489,0.543-0.841,0.805-0.943c0.233-0.091,0.467-0.016,0.634,0.21c0.353,0.472,0.217,0.772,0.105,0.91c-0.238,0.29-0.794,0.359-1.344,0.274c-0.683,1.424-1.344,3.895-1.26,4.678c0.012,0.11-0.068,0.208-0.178,0.22c-0.116,0.019-0.208-0.068-0.221-0.177c-0.085-0.796,0.531-3.253,1.273-4.808c-0.107-0.032-0.211-0.069-0.309-0.112c-0.291,0.312-0.688,0.507-1.102,0.542c-0.466,0.037-0.876-0.042-1.171-0.226c-0.091,0.091-0.191,0.177-0.304,0.254c-0.08,0.056-0.165,0.104-0.251,0.146c0.428,1.2,0.55,2.579,0.396,4.289C51.539,56.078,51.453,56.156,51.35,56.156z M49.727,50.187c-0.012,0-0.022,0-0.034,0.002c-0.064,0.011-0.126,0.056-0.165,0.092c-0.134,0.122-0.197,0.26-0.188,0.412c0.013,0.203,0.156,0.42,0.385,0.582c0.245,0.173,0.579,0.225,0.903,0.165c-0.14-0.327-0.306-0.64-0.498-0.942C50.032,50.343,49.878,50.187,49.727,50.187z M54.87,50.792c0.387,0.041,0.727-0.016,0.838-0.15c0.089-0.108-0.035-0.308-0.116-0.417c-0.083-0.111-0.131-0.092-0.168-0.077C55.254,50.215,55.065,50.45,54.87,50.792z M51.988,49.53c-0.01,0-0.021,0.002-0.037,0.006c-0.113,0.032-0.245,0.169-0.282,0.292c-0.105,0.362-0.103,0.651,0.008,0.862c0.183-0.278,0.291-0.58,0.356-0.828c0.042-0.161,0.039-0.277-0.009-0.32C52.018,49.539,52.009,49.53,51.988,49.53z M53.931,49.444c-0.022,0-0.05,0.006-0.081,0.019c-0.14,0.058-0.287,0.226-0.313,0.36c-0.057,0.284,0.132,0.493,0.333,0.63c0.139-0.237,0.2-0.509,0.172-0.772c-0.01-0.093-0.021-0.196-0.061-0.224C53.967,49.449,53.951,49.444,53.931,49.444z"/><path fill="#cbc9bc" d="M54.183,60.335h-3.522c-0.47,0-0.854-0.385-0.854-0.854l0,0c0-0.47,0.385-0.854,0.854-0.854h3.522c0.47,0,0.854,0.385,0.854,0.854l0,0C55.038,59.95,54.653,60.335,54.183,60.335z"/><path fill="#472b29" d="M54.183,60.66h-3.522c-0.65,0-1.18-0.529-1.18-1.18s0.529-1.18,1.18-1.18h3.522c0.65,0,1.18,0.529,1.18,1.18S54.833,60.66,54.183,60.66z M50.661,58.951c-0.292,0-0.529,0.237-0.529,0.529s0.237,0.529,0.529,0.529h3.522c0.292,0,0.529-0.237,0.529-0.529s-0.237-0.529-0.529-0.529H50.661z"/><path fill="#e1e0d8" d="M54.063,60.465c0,0.807-1.287,1.012-1.67,1.012c-0.903,0-1.634-0.469-1.634-1.047"/><path fill="#472b29" d="M52.393 61.802c-1.099 0-1.96-.603-1.96-1.373 0-.18.146-.325.325-.325s.325.146.325.325c0 .342.538.722 1.31.722.285 0 1.345-.171 1.345-.687 0-.18.146-.325.325-.325s.325.146.325.325C54.388 61.475 53.044 61.802 52.393 61.802zM57.908 47.846c-.083 0-.15-.067-.15-.15 0-.478-.067-.95-.2-1.406-.023-.079.021-.163.102-.186.08-.021.163.023.186.102.142.482.214.984.214 1.49C58.058 47.779 57.991 47.846 57.908 47.846zM57.339 45.494c-.055 0-.106-.03-.134-.081-.744-1.447-2.158-2.468-3.783-2.732-.278-.045-.566-.069-.855-.069-.083 0-.15-.067-.15-.15s.067-.15.15-.15c.305 0 .609.024.904.073 1.718.279 3.214 1.359 4.002 2.89.037.074.009.165-.065.202C57.386 45.488 57.363 45.494 57.339 45.494z"/><path fill="#e1e0d8" d="M54.183,58.626c0,0,1.014,0,1.014-0.854v0c0-0.47-0.374-0.854-0.831-0.854h-4.163c-0.457,0-0.831,0.385-0.831,0.854v0c0,0.47,0.374,0.854,0.831,0.854h3.963"/><path fill="#472b29" d="M54.183,58.951c-0.006,0-0.012,0-0.018,0h-3.963c-0.638,0-1.156-0.529-1.156-1.18s0.519-1.18,1.156-1.18h4.163c0.638,0,1.157,0.529,1.157,1.18C55.523,58.705,54.646,58.951,54.183,58.951z M50.203,57.242c-0.279,0-0.506,0.237-0.506,0.529s0.227,0.529,0.506,0.529h3.963c0.006,0,0.011,0.001,0.017,0c0.117-0.001,0.69-0.033,0.69-0.529c0-0.292-0.228-0.529-0.507-0.529H50.203z"/><path fill="#fdfcef" d="M40.957,75.527c1.883,0,3.517,0,3.54,0c2.11,0,3.821-1.674,3.821-3.739c0-1.802-1.302-3.305-3.035-3.66c0.02-0.158,0.034-0.317,0.034-0.48c0-2.139-1.772-3.873-3.957-3.873c-1.29,0-2.433,0.607-3.155,1.543c-0.185-2.381-2.358-4.218-4.9-3.913c-1.859,0.223-3.397,1.629-3.739,3.431c-0.11,0.578-0.098,1.139,0.011,1.665c-0.498-0.525-1.208-0.856-1.998-0.856c-1.446,0-2.627,1.102-2.72,2.494c-0.657-0.142-1.371-0.133-2.123,0.143c-1.438,0.528-2.462,1.853-2.522,3.356c-0.085,2.133,1.657,3.889,3.818,3.889c0.164,0,0.741,0,0.874,0h7.934 M34.48,75.527h0.36"/><path fill="#472b29" d="M44.497,76.028h-3.54c-0.276,0-0.5-0.224-0.5-0.5s0.224-0.5,0.5-0.5h3.54c1.831,0,3.321-1.453,3.321-3.239c0-1.524-1.108-2.857-2.637-3.17c-0.257-0.052-0.429-0.294-0.396-0.554c0.018-0.137,0.03-0.275,0.03-0.416c0-1.86-1.551-3.373-3.457-3.373c-1.093,0-2.099,0.492-2.76,1.348c-0.126,0.164-0.342,0.233-0.538,0.174c-0.198-0.059-0.34-0.234-0.355-0.44c-0.079-1.019-0.565-1.943-1.37-2.603c-0.828-0.68-1.886-0.984-2.973-0.853c-1.646,0.197-3.006,1.442-3.307,3.028c-0.095,0.494-0.091,0.988,0.009,1.471c0.046,0.219-0.06,0.441-0.258,0.544c-0.196,0.104-0.439,0.064-0.595-0.099c-0.428-0.452-1.009-0.7-1.635-0.7c-1.17,0-2.146,0.891-2.221,2.028c-0.01,0.145-0.082,0.279-0.198,0.366c-0.115,0.087-0.264,0.12-0.406,0.089c-0.641-0.14-1.242-0.098-1.847,0.124c-1.262,0.464-2.144,1.632-2.193,2.906c-0.035,0.875,0.282,1.708,0.895,2.345c0.635,0.661,1.495,1.024,2.423,1.024h8.808c0.276,0,0.5,0.224,0.5,0.5s-0.224,0.5-0.5,0.5h-8.808c-1.185,0-2.331-0.485-3.144-1.332c-0.803-0.835-1.219-1.928-1.174-3.078c0.066-1.674,1.212-3.203,2.849-3.805c0.611-0.225,1.245-0.306,1.881-0.245c0.344-1.396,1.629-2.424,3.136-2.424c0.493,0,0.977,0.113,1.413,0.323c0.009-0.242,0.037-0.484,0.083-0.726c0.381-2.009,2.096-3.585,4.17-3.834c1.364-0.163,2.686,0.218,3.727,1.073c0.747,0.613,1.277,1.409,1.546,2.301c0.791-0.648,1.785-1.007,2.843-1.007c2.458,0,4.457,1.962,4.457,4.373c0,0.034-0.001,0.068-0.002,0.103c1.765,0.555,3.004,2.188,3.004,4.038C48.819,74.126,46.88,76.028,44.497,76.028z M34.839,76.028H34.48c-0.276,0-0.5-0.224-0.5-0.5s0.224-0.5,0.5-0.5h0.359c0.276,0,0.5,0.224,0.5,0.5S35.116,76.028,34.839,76.028z"/><path fill="#472b29" d="M42.79 70.224c-.018 0-.036-.002-.055-.006-.135-.03-.22-.164-.189-.299.038-.167.095-.329.17-.48.604-1.222 2.272-1.673 3.721-1.006.126.058.181.207.122.332-.058.125-.208.18-.331.122-1.206-.556-2.58-.209-3.063.774-.058.115-.102.239-.13.367C43.008 70.145 42.905 70.224 42.79 70.224zM37.631 76.028h-1.107c-.276 0-.5-.224-.5-.5s.224-.5.5-.5h1.107c.276 0 .5.224.5.5S37.908 76.028 37.631 76.028z"/></svg>