<svg xmlns="http://www.w3.org/2000/svg"  viewBox="0 0 100 100" width="100px" height="100px"><path fill="#c7ede6" d="M87.215,56.71C88.35,54.555,89,52.105,89,49.5c0-6.621-4.159-12.257-10.001-14.478 C78.999,35.015,79,35.008,79,35c0-11.598-9.402-21-21-21c-9.784,0-17.981,6.701-20.313,15.757C36.211,29.272,34.638,29,33,29 c-7.692,0-14.023,5.793-14.89,13.252C12.906,43.353,9,47.969,9,53.5C9,59.851,14.149,65,20.5,65c0.177,0,0.352-0.012,0.526-0.022 C21.022,65.153,21,65.324,21,65.5C21,76.822,30.178,86,41.5,86c6.437,0,12.175-2.972,15.934-7.614C59.612,80.611,62.64,82,66,82 c4.65,0,8.674-2.65,10.666-6.518C77.718,75.817,78.837,76,80,76c6.075,0,11-4.925,11-11C91,61.689,89.53,58.727,87.215,56.71z"/><path fill="#fff" d="M31.5 81h-10c-.276 0-.5-.224-.5-.5s.224-.5.5-.5h10c.276 0 .5.224.5.5S31.777 81 31.5 81zM34.5 81h-1c-.276 0-.5-.224-.5-.5s.224-.5.5-.5h1c.276 0 .5.224.5.5S34.777 81 34.5 81zM39.491 83H30.5c-.276 0-.5-.224-.5-.5s.224-.5.5-.5h8.991c.276 0 .5.224.5.5S39.767 83 39.491 83zM28.5 83h-1c-.276 0-.5-.224-.5-.5s.224-.5.5-.5h1c.276 0 .5.224.5.5S28.777 83 28.5 83zM25.5 83h-2c-.276 0-.5-.224-.5-.5s.224-.5.5-.5h2c.276 0 .5.224.5.5S25.777 83 25.5 83zM31.5 85h-2c-.276 0-.5-.224-.5-.5s.224-.5.5-.5h2c.276 0 .5.224.5.5S31.776 85 31.5 85zM34.5 76c-.177 0-.823 0-1 0-.276 0-.5.224-.5.5 0 .276.224.5.5.5.177 0 .823 0 1 0 .276 0 .5-.224.5-.5C35 76.224 34.776 76 34.5 76zM34.5 78c-.177 0-4.823 0-5 0-.276 0-.5.224-.5.5 0 .276.224.5.5.5.177 0 4.823 0 5 0 .276 0 .5-.224.5-.5C35 78.224 34.776 78 34.5 78zM39.5 80c-.177 0-2.823 0-3 0-.276 0-.5.224-.5.5 0 .276.224.5.5.5.177 0 2.823 0 3 0 .276 0 .5-.224.5-.5C40 80.224 39.776 80 39.5 80zM87.5 62h-10c-.276 0-.5-.224-.5-.5s.224-.5.5-.5h10c.276 0 .5.224.5.5S87.776 62 87.5 62zM91.5 62h-2c-.276 0-.5-.224-.5-.5s.224-.5.5-.5h2c.276 0 .5.224.5.5S91.776 62 91.5 62zM96.5 64h-10c-.276 0-.5-.224-.5-.5s.224-.5.5-.5h10c.276 0 .5.224.5.5S96.777 64 96.5 64zM84.5 64h-1c-.276 0-.5-.224-.5-.5s.224-.5.5-.5h1c.276 0 .5.224.5.5S84.776 64 84.5 64zM81.47 64H79.5c-.276 0-.5-.224-.5-.5s.224-.5.5-.5h1.97c.276 0 .5.224.5.5S81.746 64 81.47 64zM90.5 60h-5c-.276 0-.5-.224-.5-.5s.224-.5.5-.5h5c.276 0 .5.224.5.5S90.777 60 90.5 60zM87.5 66h-2c-.276 0-.5-.224-.5-.5s.224-.5.5-.5h2c.276 0 .5.224.5.5S87.776 66 87.5 66z"/><path fill="#fdfcef" d="M71.5,44.5V45h-3v-0.5c0,0-4.242,0-5.5,0c-2.485,0-4.5-2.015-4.5-4.5 c0-2.333,1.782-4.229,4.055-4.455C62.533,35.364,62.5,35.187,62.5,35c0-2.485,2.015-4.5,4.5-4.5c1.438,0,2.703,0.686,3.527,1.736 C70.667,29.6,72.829,27.5,75.5,27.5c2.761,0,5,2.239,5,5c0,0.446-0.077,0.87-0.187,1.282c0.642-0.777,1.6-1.282,2.687-1.282 c1.781,0,3.234,1.335,3.455,3.055C86.636,35.533,86.813,35.5,87,35.5c2.485,0,4.5,2.015,4.5,4.5s-2.015,4.5-4.5,4.5s-9.5,0-9.5,0 H71.5z"/><path fill="#472b29" d="M75.5,27c3.033,0,5.5,2.467,5.5,5.5c0,0.016,0,0.031,0,0.047C81.602,32.192,82.29,32,83,32 c1.831,0,3.411,1.261,3.858,3.005C86.905,35.002,86.952,35,87,35c2.757,0,5,2.243,5,5s-2.243,5-5,5H71.5 c-0.276,0-0.5-0.224-0.5-0.5s0.224-0.5,0.5-0.5H87c2.206,0,4-1.794,4-4s-1.794-4-4-4c-0.117,0-0.23,0.017-0.343,0.032 l-0.141,0.019c-0.021,0.003-0.041,0.004-0.062,0.004c-0.246,0-0.462-0.185-0.495-0.437C85.768,34.125,84.496,33,83,33 c-0.885,0-1.723,0.401-2.301,1.1c-0.098,0.118-0.241,0.182-0.386,0.182c-0.078,0-0.156-0.018-0.228-0.056 c-0.209-0.107-0.314-0.346-0.254-0.573C79.946,33.218,80,32.852,80,32.5c0-2.481-2.019-4.5-4.5-4.5 c-2.381,0-4.347,1.872-4.474,4.263c-0.011,0.208-0.15,0.387-0.349,0.45c-0.05,0.016-0.101,0.024-0.152,0.024 c-0.15,0-0.296-0.069-0.392-0.192C69.362,31.563,68.221,31,67,31c-2.206,0-4,1.794-4,4c0,0.117,0.017,0.23,0.032,0.343 l0.019,0.141c0.016,0.134-0.022,0.268-0.106,0.373c-0.084,0.105-0.207,0.172-0.34,0.185C60.549,36.247,59,37.949,59,40 c0,2.206,1.794,4,4,4h5.5c0.276,0,0.5,0.224,0.5,0.5S68.776,45,68.5,45H63c-2.757,0-5-2.243-5-5c0-2.397,1.689-4.413,4.003-4.877 C62.001,35.082,62,35.041,62,35c0-2.757,2.243-5,5-5c1.176,0,2.293,0.416,3.183,1.164C70.781,28.76,72.945,27,75.5,27L75.5,27z"/><path fill="#472b29" d="M77 34c1.403 0 2.609.999 2.913 2.341C80.28 36.119 80.699 36 81.125 36c1.202 0 2.198.897 2.353 2.068C83.681 38.022 83.874 38 84.063 38c1.529 0 2.811 1.2 2.918 2.732C86.99 40.87 86.886 40.99 86.749 41c-.006 0-.012 0-.018 0-.13 0-.24-.101-.249-.232-.089-1.271-1.151-2.268-2.419-2.268-.229 0-.47.042-.738.127-.022.007-.045.01-.067.01-.055 0-.11-.02-.156-.054C83.038 38.537 83 38.455 83 38.375c0-1.034-.841-1.875-1.875-1.875-.447 0-.885.168-1.231.473-.047.041-.106.063-.165.063-.032 0-.063-.006-.093-.019-.088-.035-.148-.117-.155-.212C79.377 35.512 78.288 34.5 77 34.5c-.208 0-.425.034-.682.107-.023.007-.047.01-.07.01-.109 0-.207-.073-.239-.182-.038-.133.039-.271.172-.309C76.483 34.04 76.744 34 77 34L77 34zM63.117 35.5c1.326 0 2.508.897 2.874 2.182.038.133-.039.271-.172.309C65.795 37.997 65.772 38 65.75 38c-.109 0-.209-.072-.24-.182C65.205 36.748 64.221 36 63.117 36c-.117 0-.23.014-.342.029-.012.002-.023.003-.035.003-.121 0-.229-.092-.246-.217-.019-.137.077-.263.214-.281C62.842 35.516 62.978 35.5 63.117 35.5L63.117 35.5z"/><path fill="#fabf82" d="M27.355,72.3c-0.913,0-1.655-0.759-1.655-1.692V38.393c0-0.934,0.742-1.692,1.655-1.692h44.289 c0.913,0,1.655,0.759,1.655,1.692v32.216c-0.001,0.933-0.743,1.691-1.655,1.691H27.355z"/><path fill="#472b29" d="M71.644,37.4c0.518,0,0.956,0.455,0.956,0.992v32.215c0,0.538-0.438,0.992-0.956,0.992H27.356 c-0.518,0-0.956-0.455-0.956-0.992V38.392c0-0.538,0.438-0.992,0.956-0.992H71.644 M71.644,36H27.356 C26.06,36,25,37.077,25,38.392v32.215C25,71.924,26.06,73,27.356,73h44.289c1.295,0,2.355-1.076,2.356-2.392V38.392 C74,37.076,72.94,36,71.644,36L71.644,36z"/><g><path fill="#f69272" d="M46.417 72.563L46.417 37.375 51.583 37.375 51.583 38.343 51.583 72.563 46.417 72.563"/></g><g><path fill="#fef6aa" d="M69.097,65.5H73.5v0.522v3.034c0,2.569-0.406,3.381-2.847,3.444l-4.184-0.031l0.009-4.735 C66.477,66.659,68.034,65.5,69.097,65.5z"/><path fill="#472b29" d="M70.666,73l-4.698-0.035l0.01-5.232c0-1.381,1.786-2.732,3.119-2.732H74v4.057 C74,71.725,73.519,72.927,70.666,73z M66.97,71.973L70.657,72C72.669,71.948,73,71.535,73,69.057V66h-3.903 c-0.806,0-2.119,0.969-2.119,1.733L66.97,71.973z"/></g><g><path fill="#b3b2c3" d="M41.077,35.081c-0.27-2.473,2.162-5.581,3.689-5.581h8.517c1.53,0,3.662,3.416,3.74,5.581H59 c-0.259-4.131-1.864-8.581-5.149-8.581h-9.654c-2.455,0-4.938,4.457-5.197,8.581H41.077z"/><path fill="#472b29" d="M59.532,35.581H56.54l-0.018-0.482C56.447,32.998,54.361,30,53.282,30h-8.517 c-0.426,0-1.054,0.405-1.639,1.059c-0.881,0.982-1.703,2.59-1.553,3.969l0.061,0.554h-3.167l0.033-0.531 c0.263-4.185,2.808-9.05,5.695-9.05h9.655c3.75,0,5.386,4.875,5.647,9.05L59.532,35.581z M57.479,34.581h0.981 C58.11,30.725,56.587,27,53.852,27h-9.655c-1.983,0-4.236,3.741-4.651,7.581h1.013c0.039-1.622,0.969-3.235,1.824-4.19 C42.848,29.871,43.777,29,44.766,29h8.517C55.025,29,57.14,32.207,57.479,34.581z"/></g><g><path fill="#472b29" d="M70 68A1 1 0 1 0 70 70A1 1 0 1 0 70 68Z"/></g><g><path fill="#fef6aa" d="M32.491,67.734l0.009,4.735L28.316,72.5c-2.441-0.063-2.847-0.875-2.847-3.444v-3.034V65.5h4.403 C30.935,65.5,32.491,66.659,32.491,67.734z"/><path fill="#472b29" d="M28.319,73c-2.869-0.073-3.351-1.275-3.351-3.943V65h4.903c1.333,0,3.118,1.351,3.119,2.732 l0.01,5.232L28.319,73z M25.969,66v3.057c0,2.479,0.331,2.892,2.359,2.943l3.671-0.027l-0.008-4.239 c0-0.765-1.313-1.733-2.119-1.733H25.969z"/></g><g><path fill="#472b29" d="M28.969 68A1 1 0 1 0 28.969 70A1 1 0 1 0 28.969 68Z"/></g><g><path fill="#b3b2c3" d="M43.223,36.542h-6.321c-0.176,0-0.318-0.243-0.318-0.541l0.001-0.96c0-0.297,0.143-0.54,0.318-0.54 h6.321c0.176,0,0.318,0.243,0.318,0.541v0.96C43.541,36.298,43.397,36.542,43.223,36.542z"/><path fill="#472b29" d="M43.223,37.042h-6.321c-0.467,0-0.818-0.448-0.818-1.042l0.001-0.961 c0-0.592,0.352-1.039,0.818-1.039h6.321c0.467,0,0.818,0.447,0.818,1.041v0.961C44.04,36.596,43.688,37.042,43.223,37.042z M37.085,36.042h5.955c0.001-0.013,0.002-0.026,0.002-0.042v-0.959c0-0.015-0.001-0.028-0.002-0.041h-5.954 c-0.001,0.013-0.002,0.025-0.002,0.04l-0.001,0.961C37.083,36.016,37.084,36.029,37.085,36.042z"/></g><g><path fill="#b3b2c3" d="M61.223,36.542h-6.321c-0.176,0-0.318-0.243-0.318-0.541l0.001-0.96c0-0.297,0.143-0.54,0.318-0.54 h6.321c0.176,0,0.318,0.243,0.318,0.541v0.96C61.541,36.298,61.397,36.542,61.223,36.542z"/><path fill="#472b29" d="M61.223,37.042h-6.321c-0.467,0-0.818-0.448-0.818-1.042l0.001-0.961 c0-0.592,0.352-1.039,0.818-1.039h6.321c0.467,0,0.818,0.447,0.818,1.041v0.961C62.04,36.596,61.688,37.042,61.223,37.042z M55.085,36.042h5.955c0.001-0.013,0.002-0.026,0.002-0.042v-0.959c0-0.015-0.001-0.028-0.002-0.041h-5.954 c-0.001,0.013-0.002,0.025-0.002,0.04l-0.001,0.961C55.083,36.016,55.084,36.029,55.085,36.042z"/></g><g><path fill="#472b29" d="M44.5,56h-19c-0.276,0-0.5-0.224-0.5-0.5s0.224-0.5,0.5-0.5h19c0.276,0,0.5,0.224,0.5,0.5 S44.776,56,44.5,56z"/></g><g><path fill="#472b29" d="M51.5,41.875c-0.138,0-0.25-0.112-0.25-0.25V38.5c0-0.138,0.112-0.25,0.25-0.25 s0.25,0.112,0.25,0.25v3.125C51.75,41.763,51.638,41.875,51.5,41.875z"/></g><g><path fill="#472b29" d="M46.5,71.75c-0.138,0-0.25-0.112-0.25-0.25v-3c0-0.138,0.112-0.25,0.25-0.25s0.25,0.112,0.25,0.25v3 C46.75,71.638,46.638,71.75,46.5,71.75z"/></g><g><path fill="#472b29" d="M51.5,73.167c-0.138,0-0.25-0.112-0.25-0.25V43.458c0-0.138,0.112-0.25,0.25-0.25 s0.25,0.112,0.25,0.25v29.459C51.75,73.055,51.638,73.167,51.5,73.167z"/></g><g><path fill="#472b29" d="M46.5,66.75c-0.138,0-0.25-0.112-0.25-0.25v-30c0-0.138,0.112-0.25,0.25-0.25s0.25,0.112,0.25,0.25 v30C46.75,66.638,46.638,66.75,46.5,66.75z"/></g><g><path fill="#472b29" d="M73.5,56h-19c-0.276,0-0.5-0.224-0.5-0.5s0.224-0.5,0.5-0.5h19c0.276,0,0.5,0.224,0.5,0.5 S73.776,56,73.5,56z"/></g><g><path fill="#fef6aa" d="M48.309,46.572l1.419-0.009c1.524-0.01,2.772,1.267,2.782,2.846l0.021,3.357 c0.01,1.579-1.222,2.872-2.746,2.882l-1.42,0.009c-1.524,0.01-2.772-1.267-2.782-2.846l-0.021-3.357 C45.553,47.874,46.786,46.581,48.309,46.572z M49.824,54.241c0.722-0.005,1.306-0.616,1.302-1.362l-0.022-3.567 c-0.005-0.746-0.596-1.349-1.319-1.345l-1.514,0.01c-0.722,0.005-1.306,0.616-1.302,1.362l0.022,3.567 c0.005,0.746,0.596,1.349,1.319,1.345L49.824,54.241z"/><path fill="#472b29" d="M48.348,55.906c-0.799,0-1.551-0.32-2.12-0.902c-0.572-0.585-0.89-1.364-0.895-2.192l-0.021-3.356 c-0.011-1.718,1.333-3.123,2.995-3.134l1.419-0.009c0.007,0,0.014,0,0.02,0c0.799,0,1.551,0.32,2.12,0.902 c0.572,0.585,0.89,1.364,0.895,2.192l0.021,3.356c0.011,1.718-1.333,3.123-2.994,3.134l-1.42,0.009 C48.36,55.906,48.354,55.906,48.348,55.906z M48.312,46.821c-1.387,0.009-2.508,1.188-2.499,2.63l0.021,3.356 c0.004,0.699,0.271,1.354,0.752,1.847c0.475,0.485,1.1,0.752,1.763,0.752c0.006,0,0.011,0,0.016,0l1.42-0.009 c1.387-0.009,2.507-1.188,2.498-2.63l-0.021-3.356c-0.004-0.699-0.271-1.354-0.752-1.847c-0.475-0.485-1.1-0.752-1.763-0.752 c-0.006,0-0.011,0-0.016,0L48.312,46.821z M48.303,54.501c-0.856,0-1.556-0.713-1.562-1.594l-0.022-3.566 c-0.005-0.885,0.691-1.608,1.551-1.614l1.513-0.01c0.003,0,0.006,0,0.009,0c0.856,0,1.557,0.713,1.563,1.594l0.022,3.566 c0.005,0.885-0.69,1.608-1.55,1.614l-1.515,0.01C48.309,54.501,48.306,54.501,48.303,54.501z M49.791,48.217 c-0.002,0-0.004,0-0.006,0l-1.512,0.01c-0.585,0.004-1.058,0.502-1.055,1.111l0.022,3.565c0.004,0.606,0.479,1.098,1.062,1.098 c0.002,0,0.004,0,0.006,0l1.514-0.01c0.584-0.004,1.057-0.502,1.054-1.111l-0.022-3.565C50.85,48.708,50.373,48.217,49.791,48.217z"/></g><g><path fill="#fef6aa" d="M48.705,53h0.686c0.112,0,0.203,0.095,0.203,0.212l-0.002,3.576c0,0.117-0.091,0.212-0.203,0.212 h-0.686c-0.112,0-0.203-0.095-0.203-0.212l0.002-3.576C48.502,53.095,48.593,53,48.705,53z"/><path fill="#472b29" d="M49.39,57.25h-0.687c-0.25,0-0.453-0.207-0.453-0.462l0.002-3.576c0-0.255,0.203-0.462,0.452-0.462 h0.687c0.25,0,0.453,0.207,0.453,0.462l-0.002,3.576C49.842,57.043,49.639,57.25,49.39,57.25z M48.752,53.247l-0.002,3.541 l0.64-0.038l-0.046-3.538L48.752,53.247z M48.711,53.25h-0.007C48.707,53.25,48.709,53.25,48.711,53.25z"/></g><g><path fill="#fdfcef" d="M31.5,60.5c0,0,1.567,0,3.5,0s3.5-1.567,3.5-3.5c0-1.781-1.335-3.234-3.055-3.455 C35.473,53.366,35.5,53.187,35.5,53c0-1.933-1.567-3.5-3.5-3.5c-1.032,0-1.95,0.455-2.59,1.165 c-0.384-1.808-1.987-3.165-3.91-3.165c-2.209,0-4,1.791-4,4c0,0.191,0.03,0.374,0.056,0.558C21.128,51.714,20.592,51.5,20,51.5 c-1.228,0-2.245,0.887-2.455,2.055C17.366,53.527,17.187,53.5,17,53.5c-1.933,0-3.5,1.567-3.5,3.5s1.567,3.5,3.5,3.5s7.5,0,7.5,0 V61h7V60.5z"/><path fill="#472b29" d="M33.25 56C33.112 56 33 55.888 33 55.75c0-1.223.995-2.218 2.218-2.218.034.009.737-.001 1.244.136.133.036.212.173.176.306-.036.134-.173.213-.306.176-.444-.12-1.1-.12-1.113-.118-.948 0-1.719.771-1.719 1.718C33.5 55.888 33.388 56 33.25 56zM26.5 60A.5.5 0 1 0 26.5 61 .5.5 0 1 0 26.5 60z"/><path fill="#472b29" d="M35,61h-3.5c-0.276,0-0.5-0.224-0.5-0.5s0.224-0.5,0.5-0.5H35c1.654,0,3-1.346,3-3 c0-1.496-1.125-2.768-2.618-2.959c-0.134-0.018-0.255-0.088-0.336-0.196s-0.115-0.244-0.094-0.377C34.975,53.314,35,53.16,35,53 c0-1.654-1.346-3-3-3c-0.85,0-1.638,0.355-2.219,1c-0.125,0.139-0.321,0.198-0.5,0.148c-0.182-0.049-0.321-0.195-0.36-0.379 C28.58,49.165,27.141,48,25.5,48c-1.93,0-3.5,1.57-3.5,3.5c0,0.143,0.021,0.28,0.041,0.418c0.029,0.203-0.063,0.438-0.242,0.54 c-0.179,0.102-0.396,0.118-0.556-0.01C20.878,52.155,20.449,52,20,52c-0.966,0-1.792,0.691-1.963,1.644 c-0.048,0.267-0.296,0.446-0.569,0.405C17.314,54.025,17.16,54,17,54c-1.654,0-3,1.346-3,3s1.346,3,3,3h7.5 c0.276,0,0.5,0.224,0.5,0.5S24.776,61,24.5,61H17c-2.206,0-4-1.794-4-4s1.794-4,4-4c0.059,0,0.116,0.002,0.174,0.006 C17.588,51.82,18.711,51,20,51c0.349,0,0.689,0.061,1.011,0.18C21.176,48.847,23.126,47,25.5,47c1.831,0,3.466,1.127,4.153,2.774 C30.333,49.276,31.155,49,32,49c2.206,0,4,1.794,4,4c0,0.048-0.001,0.095-0.004,0.142C37.739,53.59,39,55.169,39,57 C39,59.206,37.206,61,35,61z"/><path fill="#472b29" d="M29.5,60c-0.159,0-0.841,0-1,0c-0.276,0-0.5,0.224-0.5,0.5c0,0.276,0.224,0.5,0.5,0.5 c0.159,0,0.841,0,1,0c0.276,0,0.5-0.224,0.5-0.5C30,60.224,29.776,60,29.5,60z"/></g></svg>